# xmcd CD database file
#
# Track frame offsets:
#	150
#	4366
#	23508
#	45390
#	64966
#	85366
#	108520
#	128265
#	130740
#	152116
#	156016
#	174841
#	198541
#
# Disc length: 2906 seconds
#
# Revision: 0
# Processed by: cddbd v1.5PL3 Copyright (c) Steve Scherf et al.
# Submitted via: CDex 1.51
#
DISCID=9b0b580d
DTITLE=MARIA - NUDE
DYEAR=2003
DGENRE=Hip-Hop
TTITLE0=Tricky Lips 1(intro)
TTITLE1=Slap machine
TTITLE2=Nude
TTITLE3=Sheep dish
TTITLE4=Firewoman
TTITLE5=Waxually active
TTITLE6=Touch my Lips
TTITLE7=Tricky Lips 2(skit)
TTITLE8=Between da lines
TTITLE9=Tricky Lips 3(skit)
TTITLE10=Shy babiez
TTITLE11=Is it real?
TTITLE12=Luvaz
EXTD=YEAR: 2003
EXTT0=
EXTT1=
EXTT2=
EXTT3=
EXTT4=
EXTT5=
EXTT6=
EXTT7=
EXTT8=
EXTT9=
EXTT10=
EXTT11=
EXTT12=
PLAYORDER=
